<svg fill="none" xmlns="http://www.w3.org/2000/svg" viewBox="0 0 400 400">
  <path d="M328.099 185.788l-.993-.764-.878.144-.182-.41c.237-.268.355-.457.518-.767l-.473-.716.866-.237c.37-.774.275-1.222.118-2.048l-1.111-.669c-.275-.843-.549-1.485-1.096-2.191-.907-1.172.345-3.999.138-5.287-.147-.928-.098-1.871-.099-2.811l.001-7.499c0-.47-.144-1.685.004-2.037.085-.204.626-.629.805-.809.049-.748.251-1.888-.143-2.552l-.227-.363c-.234-.544-.309-1.022-.617-1.572-.197-.353.026-.818.115-1.209-.449-.602-.5-.886-.507-1.645-.004-.376.027-.739-.081-1.104-.454-1.548-.578-5.282-.099-6.823l.129-.381c-.75-2.007-.118-5-.258-7.172-.044-.673-.375-1.232-.197-1.904.405-1.52-.043-3.039.636-4.56.211-.472.431-.854.434-1.386.008-1.251-.213-1.959-1.11-2.783.083-1.082.847-1.714.833-3.06l-.01-.338c.718-1.168.742-1.194 2.039-1.629l.417.292-.565.617.067.562.396-.287.199 1.351a1.82 1.82 0 00.523-.856c.273-.944.358-3.219-.114-4.076-1.202.113-1.268.052-2.085.919l-.529-.228c-.051-.67-.115-1.307.056-1.966l.119-.427c-.362-.635-.657-1.208-.458-1.962.419-1.594-.35-2.966-.097-4.298.151-.798.528-.834.428-1.772-.067-.634-.158-1.141.005-1.775l.122-.439c-.181-.343-.397-.728-.478-1.11-.173-.819-.081-1.301.342-1.984-.14-.755-.042-1.288.12-2.036l.065-.286c-.154-.304-.624-1.097-.572-1.445.035-.23.517-.701.507-.898-.017-.328-.529-2.052-.694-2.32-.617-1.003-1.296-.785-1.537-2.151l.658-.817c.317-2.153-.205-1.038-1.263-2.47l-.024-10.283c-.001-1.451-.233-3.271.12-4.645.245-.952-.097-2.481.219-3.265.209-.518.774-1.082 1.108-1.536.386-.526.55-.737 1.141-1.052l1.178 1.11.509-.036c.078-.656.197-1.239.373-1.876l.747-.391.608.9 1.053.003.529 1.395 1.527.204c3.508 4.993 6.162 10.645 9.224 15.917l20.682 35.768 20.66 35.818 10.116 17.541c1.598 2.795 3.456 5.442 4.827 8.364 1.707 3.635 3.471 8.824 3.055 12.914-.041.408-.183.663-.366 1.02-.675-.638-4.671-1.091-5.717-1.29l-28.108-4.943-27.433-5.265c-3.331-.633-6.986-.942-10.215-1.928z" fill="#035E7B"/>
  <path d="M313.015 183.252c4.882.776 10.178 2.334 15.084 2.536 3.229.986 6.884 1.295 10.215 1.927l27.433 5.266 28.108 4.943c1.046.199 5.043.652 5.717 1.29 1.178 2.283-.546 8.882-1.316 11.275-1.761 5.47-5.342 10.438-8.156 15.423l-19.501 33.846-29.878 51.918-13.19 22.789-.5-.353c.192-.514.161-.856.127-1.391l-1.011.384-.091.561c-.372.129-.237.096-.589.17l-.232.046c.11.537.261.695.002 1.2l-.257-.029c-.84-.036-1.223.203-1.815.755-.368.342-.639.599-1.098.823l-.103-.562c-.712-2.406-.039-5.246-.277-7.754-.076-.801-.429-1.562-.514-2.381-.225-2.144-.183-4.466-.61-6.581-.335-1.661-.141-3.63-.137-5.333l.027-10.694c.002-1.673.152-3.505-.005-5.163l-.315-4.391c-.047-.552-.321-1.058-.35-1.612-.252-4.73.016-9.615.037-14.357.014-2.992.291-6.239.026-9.206-.161-1.804-.086-3.783-.314-5.562-.093-.726-.374-1.178-.226-1.925.072-.355.116-.475.048-.844-.229-1.251.019-2.558-.137-3.815-.635-5.144-.351-10.574-.316-15.793.007-1.041.423-2.726.223-3.606-.09-.396-.103-.444-.004-.874.307-1.318.122-3.036.123-4.411l.011-9.412c.003-1.135-.179-2.676.15-3.738l.131-.388c-.333-.954-.483-3.932-.117-4.891.195-.512.493-6.976.364-7.419-.339-1.169-.109-2.927-.265-4.232-.353-2.935-1.045-5.807-1.602-8.702-.206-1.073-.153-2.151-.395-3.229-.228-1.011 1.029-1.772.589-3.052l-1.596.16-.074.806-.712.294c-.122-.53-.204-.966-.177-1.512l.027-.455-.485-.098c-.391-.775-.767-1.103-1.558-1.487l-.408-.192-.111-.968z" fill="url(#2j9tkOqtB5-ka)"/>
  <path d="M0 201.136c.076-3.487.319-6.832 1.3-10.206 1.125-3.869 3.162-7.381 5.117-10.877l8.804-15.255 30.407-52.861L66.87 74.894l8.437-14.648c2.006-3.44 3.894-6.932 6.308-10.114 5.298-6.99 12.098-12.456 19.791-16.622 6.225-3.37 14.012-5.274 21.016-5.995 8.05-.83 16.544-.358 24.645-.356l42.8.003 55.629-.006c10.077-.005 20.391-.44 30.445.164 4.519.272 9.132 1.21 13.468 2.495 10.248 3.04 20.111 9.545 26.948 17.803 6.034 7.29 10.508 15.976 15.016 24.254l-1.527-.204-.529-1.395-1.053-.004-.608-.9-.747.392c-.176.637-.295 1.22-.373 1.876l-.51.036-1.178-1.11c-.59.315-.754.526-1.14 1.052-.334.454-.899 1.018-1.108 1.536-.316.784.026 2.313-.219 3.265-.353 1.374-.121 3.194-.12 4.645l.024 10.284c1.058 1.43 1.58.316 1.263 2.47l-.659.815c.242 1.367.921 1.15 1.538 2.151.165.268.677 1.993.694 2.321.01.197-.472.668-.507.898-.052.348.418 1.141.572 1.445l-.065.286c-.162.748-.26 1.281-.12 2.036-.423.683-.516 1.165-.342 1.984.081.382.297.767.477 1.11l-.121.439c-.163.633-.072 1.14-.005 1.775.1.938-.277.974-.429 1.772-.252 1.332.517 2.703.098 4.298-.199.754.096 1.327.457 1.962l-.118.427c-.171.659-.107 1.296-.056 1.966l.529.228c.816-.867.883-.806 2.085-.919.471.857.387 3.132.114 4.076a1.832 1.832 0 01-.523.856l-.199-1.351-.396.287-.067-.562.565-.617-.417-.292c-1.298.434-1.321.461-2.039 1.629l.01.338c.014 1.346-.75 1.978-.833 3.06.897.824 1.118 1.531 1.11 2.783-.003.532-.223.914-.434 1.385-.679 1.522-.231 3.041-.636 4.561-.178.672.153 1.231.197 1.904.14 2.172-.492 5.165.258 7.172l-.13.381c-.478 1.541-.354 5.275.1 6.823.108.365.077.728.081 1.104.007.759.058 1.043.507 1.645-.089.391-.312.856-.115 1.209.308.55.383 1.028.617 1.572l.227.363c.394.664.192 1.803.143 2.552-.179.18-.72.605-.805.809-.148.352-.004 1.567-.004 2.037l-.001 7.499c.001.94-.048 1.883.099 2.811.206 1.288-1.045 4.115-.138 5.287.547.706.821 1.348 1.096 2.191l1.111.669c.157.826.252 1.274-.118 2.048l-.866.237.473.716c-.163.31-.281.499-.518.767l.182.41.878-.145.993.765c-4.906-.202-10.203-1.76-15.084-2.536l-.261-.408-2.182.172c-3.405-.955-7.018-1.489-10.487-2.211l-28.013-5.346-38.099-7.639-15.601-2.83c-3.473-.617-7.172-1.04-10.492-2.271-2.518-.933-4.505-2.652-5.846-4.975-.886-1.535-1.213-3.376-1.342-5.124-.228-3.111-.036-6.379-.038-9.504l-.004-18.515.006-57.88.009-13.449c.005-1.939.307-4.557-.125-6.399-.436-1.86-1.585-2.785-3.01-3.902-1.547-.182-3.918-.696-5.222.4-1.721 1.45-2.97 4.043-4.105 5.974l-6.221 10.843L170.585 79.9l-46.73 80.507-32.859 56.68c-.612.359-1.132.272-1.838.184-1.4-.174-2.827-.59-4.238-.807l-27.766-5.038L0 201.136z" fill="url(#2j9tkOqtB5-kb)"/>
  <path d="M90.996 217.087l32.859-56.68 46.73-80.507 11.397-19.712 6.221-10.843c1.135-1.931 2.384-4.524 4.105-5.973 1.304-1.097 3.675-.584 5.222-.4 1.425 1.116 2.575 2.041 3.01 3.901.432 1.842.13 4.46.125 6.4l-.009 13.448-.006 57.88.004 18.515c.002 3.125-.19 6.393.038 9.504.129 1.748.456 3.589 1.342 5.124 1.341 2.323 3.328 4.042 5.846 4.975 3.32 1.231 7.019 1.654 10.492 2.271l15.601 2.83 38.099 7.639 28.013 5.346c3.469.722 7.082 1.256 10.487 2.212l2.182-.173.261.408.111.968.408.192c.791.384 1.167.712 1.558 1.487l.485.098-.027.455c-.027.546.055.982.177 1.512l.712-.294.073-.806 1.596-.16c.441 1.28-.816 2.041-.589 3.052.243 1.078.19 2.156.396 3.229.556 2.895 1.248 5.767 1.602 8.702.156 1.305-.074 3.063.265 4.232.128.443-.169 6.907-.365 7.419-.365.959-.215 3.937.118 4.891l-.132.388c-.329 1.062-.146 2.603-.149 3.738l-.011 9.412c-.001 1.375.184 3.093-.123 4.411-.099.43-.087.478.004.874.2.88-.216 2.565-.223 3.606-.035 5.219-.32 10.649.316 15.793.156 1.257-.092 2.564.137 3.815.068.369.024.489-.048.844-.148.747.133 1.199.226 1.925.227 1.779.152 3.758.314 5.562.265 2.967-.012 6.214-.026 9.206-.021 4.742-.289 9.627-.037 14.357.029.554.303 1.06.35 1.612l.315 4.391c.157 1.658.007 3.49.005 5.163l-.027 10.694c-.004 1.703-.198 3.672.137 5.333.427 2.116.385 4.438.61 6.581.085.819.438 1.58.514 2.381.237 2.508-.435 5.348.277 7.754l.103.562c.459-.224.73-.481 1.098-.823.592-.552.975-.791 1.814-.755l.258.029c.259-.505.108-.663-.002-1.2l.232-.046c.352-.074.217-.041.589-.17l.091-.561 1.01-.384c.034.535.066.877-.126 1.391l.5.353c-3.052 6.708-7.706 14.1-12.773 19.498-11.271 12.012-25.829 18.226-42.294 18.744l-33.32.07-62.3.013-33.982.007c-8.784.002-17.716.577-26.37-1.143-10.35-2.059-20.214-7.18-27.911-14.439-2.956-2.786-5.902-6.061-8.147-9.451-5.309-8.017-9.744-16.759-14.577-25.075l-29.831-51.47-22.05-38.099c-3.848-6.639-8.199-13.145-11.42-20.126C.785 209.155.135 205.321 0 201.136l57.154 10.29 27.766 5.038c1.411.217 2.839.633 4.238.807.706.088 1.226.175 1.838-.184z" fill="url(#2j9tkOqtB5-kc)"/>
  <path d="M310.572 183.016l2.182-.172c-.307.254-.901.618-1.119.926-.548.774.168.759-.954 1.418l-1.034-.384.925-1.788z" fill="#4296A3"/>
  <path d="M90.996 217.087l32.859-56.68 46.73-80.507 11.397-19.712 6.221-10.843c1.135-1.931 2.384-4.524 4.105-5.973 1.304-1.097 3.675-.584 5.222-.4 1.425 1.116 2.575 2.041 3.01 3.901.432 1.842.13 4.46.125 6.4l-.009 13.448-.006 57.88.004 18.515c.002 3.125-.19 6.393.038 9.504.129 1.748.456 3.589 1.342 5.124 1.341 2.323 3.328 4.042 5.846 4.975 3.32 1.231 7.019 1.654 10.492 2.271l15.601 2.83 38.099 7.639 28.013 5.346c3.469.722 7.082 1.256 10.487 2.212l-.925 1.788L302 198.103l-19.365 33.367-46.003 79.048-19.839 34.235c-2.04 3.428-3.779 7.346-6.115 10.558-.918 1.262-1.817 2.107-3.383 2.447-1.232.268-2.757-.223-3.79-.89-.883-.569-1.547-1.385-2.206-2.186l-.125-28.618.01-52.138-.004-17.903c-.003-3.12.293-6.606-.241-9.671-.437-2.513-1.858-4.943-3.749-6.646-1.068-.962-2.263-1.815-3.637-2.275-2.661-.892-5.636-1.225-8.395-1.712l-12.476-2.324-52.931-10.413-21.1-4.331c-2.487-.53-5.257-.751-7.655-1.564z" fill="#fff"/>
  <defs>
    <linearGradient id="2j9tkOqtB5-ka" x1="400.297" y1="258.447" x2="319" y2="260" gradientUnits="userSpaceOnUse">
      <stop stop-color="#035E7B"/>
      <stop offset="1" stop-color="#0696C7"/>
    </linearGradient>
    <linearGradient id="2j9tkOqtB5-kb" x1="-1.115" y1="124.433" x2="331.267" y2="117.693" gradientUnits="userSpaceOnUse">
      <stop stop-color="#0596C7"/>
      <stop offset="1" stop-color="#035E7B"/>
    </linearGradient>
    <linearGradient id="2j9tkOqtB5-kc" x1="326.548" y1="277.336" x2="1.201" y2="280.611" gradientUnits="userSpaceOnUse">
      <stop stop-color="#0596C7"/>
      <stop offset="1" stop-color="#035E7B"/>
    </linearGradient>
  </defs>
</svg>
