<svg fill="none" xmlns="http://www.w3.org/2000/svg" viewBox="0 0 400 400">
  <path d="M109.871 43.495l39.298-22.482c12.512-7.118 25.185-15.517 39.076-19.553 7.793-2.265 18.305-1.748 26.049.543 9.599 2.84 17.697 8.489 26.33 13.35l48.879 28.006c-1.697 1.43-3.483 2.156-5.285 3.357l-16.651 10.041-45.887 26.654c-6.862 3.854-15.376 7.491-21.28 12.641l-.466-.119c-2.127-2.165-5.035-3.304-7.714-4.627l-8.142-4.47-54.809-31.782-14.346-8.388c-1.784-1.1-3.417-1.774-5.052-3.171z" fill="#CECDD1"/>
  <path d="M380.34 200.231c.28.304 1.068.985 1.221 1.326.158.355-.056 2.199-.068 2.685l-.147 9.158-.196 61.255c-.578 13.973-5.634 26.711-16.138 36.296-6.237 5.691-13.609 9.724-20.896 13.889l-20.105 11.617-32.043 18.438c-1.901-3.985-1.328-9.111-1.379-13.445l-.163-19.12-.468-69.637c2.831-.957 5.689-3.269 8.285-4.791l18.227-10.474 47.326-26.939 16.544-10.258z" fill="#2F314F"/>
  <path d="M18.55 205.869l.34-4.616c4.678 1.626 8.59 4.114 12.85 6.571l15.165 8.676 48.282 27.39 8.599 4.641c1.78 1.016 2.63 2.187 4.793 2.487l.352 1.056.324 68.666-.202 23.491c-.109 2.538.015 5.381-.345 7.864-.13.893-.634 1.709-1.146 2.433-4.08-1.971-8.049-4.57-11.98-6.846l-19.643-11.26c-11.395-6.569-23.614-12.757-34.493-20.079-3.321-2.235-6.47-4.791-9.225-7.7-5.488-5.791-9.895-13.183-12.027-20.906-3.271-11.854-1.914-26.059-1.92-38.287l.275-43.581z" fill="#8B8A99"/>
  <path d="M108.931 252.075l67.896 39.138 14.201 8.174c2.837 1.661 5.731 3.886 8.948 4.642l.208 1.449-.451 94.522c-6.64-.101-12.978-1.455-19.146-3.888-10.333-4.074-20.261-10.924-29.896-16.493l-43.129-25.091c.512-.723 1.016-1.54 1.146-2.433.36-2.483.237-5.325.345-7.863l.202-23.492-.324-68.665z" fill="#737487"/>
  <path d="M25.238 99.57c8.13 6.23 18.552 10.768 27.464 15.939L91.56 137.71c5.372 3.044 10.522 6.739 16.115 9.324.65.301.896.517 1.296 1.116-.945 2.77-.451 6.222-.396 9.13l.072 14.764-.068 58.411-.255 14.461c-.049 1.45-.559 4.227-.09 5.528.063.175.255.439.345.574-2.163-.3-3.013-1.471-4.793-2.487l-8.599-4.641-48.281-27.39-15.166-8.676c-4.26-2.457-8.171-4.945-12.85-6.571l-.34 4.616c-.583-4.495-.32-9.196-.317-13.724l.008-22.105.046-32.46c.018-7.014-.322-14.489.726-21.429.914-6.056 3.148-11.337 6.225-16.581z" fill="#A3A1AD"/>
  <path d="M289.503 43.36c3.763 1.755 7.289 4.093 10.895 6.164l21.652 12.459c12.902 7.37 27.069 13.802 38.86 22.884 5.337 4.111 9.605 9.099 14.118 14.049l-24.6 14.605-45.436 26.539-10.555 5.715c-1.294.684-2.975 1.018-3.717 2.351l-.62.027c-.303-.574-.633-.991-1.184-1.338-2.792-1.755-5.9-3.138-8.762-4.814l-34.609-19.956-31.232-18.152c-4.604-2.641-9.126-5.552-13.913-7.84 5.904-5.15 14.418-8.788 21.28-12.643l45.887-26.653 16.651-10.041c1.802-1.201 3.588-1.928 5.285-3.357zM25.238 99.57c2.676-5.326 7.6-10.522 12.297-14.136C48.24 77.2 61.433 71.076 73.203 64.401l36.668-20.906c1.636 1.397 3.269 2.07 5.052 3.17l14.346 8.389 54.809 31.781 8.142 4.471c2.679 1.323 5.587 2.462 7.714 4.627l-90.502 51.198.06 1.004-.521.015c-.4-.599-.646-.815-1.296-1.116-5.593-2.585-10.743-6.28-16.115-9.324l-38.858-22.201c-8.912-5.171-19.334-9.709-27.464-15.94z" fill="#CDCCD2"/>
  <path d="M290.1 148.153l.62-.027 68.484 39.284 14.988 8.69c1.919 1.139 4.769 2.407 6.148 4.131l-16.544 10.258-47.326 26.939-18.227 10.474c-2.596 1.522-5.454 3.834-8.285 4.791-3.757-3.531-8.26-5.676-12.745-8.095l-14.151-7.952-39.275-22.861-10.982-6.112c-1.897-1.044-4.153-2.032-5.826-3.387-2.078-1.685-3.908-2.229-5.392-4.674 7.122-5.505 16.475-9.859 24.365-14.296l38.66-22.223c8.426-4.814 17.531-9.398 25.488-14.94z" fill="#5B5D73"/>
  <path d="M199.934 95.933l.466.12c4.787 2.289 9.309 5.199 13.913 7.84l31.232 18.152 34.609 19.956c2.862 1.676 5.97 3.059 8.762 4.814.551.347.881.764 1.184 1.339-7.957 5.541-17.062 10.125-25.488 14.939l-38.66 22.223c-7.89 4.437-17.243 8.791-24.365 14.296l-1.899-.073c-1.858-.362-3.536-1.816-5.152-2.775l-11.47-6.717-46.429-26.639c-8.825-5.102-17.822-11.184-27.145-15.273l-.06-1.004 90.502-51.198z" fill="#FEFEFE"/>
  <path d="M109.492 148.135c9.323 4.089 18.32 10.171 27.145 15.273l46.429 26.639 11.47 6.717c1.616.959 3.294 2.412 5.152 2.775l.288 104.49c-3.217-.756-6.111-2.981-8.948-4.642l-14.201-8.174-67.896-39.139-.352-1.056c-.09-.135-.282-.399-.345-.574-.469-1.301.041-4.078.09-5.528l.255-14.461.068-58.411-.072-14.764c-.055-2.908-.549-6.36.395-9.13l.522-.015z" fill="#B8F84E"/>
  <path d="M199.688 199.539l1.899.073c1.484 2.445 3.314 2.989 5.392 4.674 1.673 1.355 3.929 2.343 5.826 3.387l10.982 6.112 39.275 22.861 14.151 7.952c4.485 2.419 8.988 4.564 12.746 8.095l.467 69.637.163 19.12c.051 4.334-.522 9.46 1.379 13.445l-3.455 2-44.915 26.168c-8.356 4.794-16.667 10.442-25.713 13.806-5.935 2.206-11.849 3.038-18.152 3.131l.451-94.522-.208-1.449-.288-104.49z" fill="#474761"/>
  <path d="M200.184 305.478c1.27.25 2.645.533 3.814 1.109 4.433 2.189 8.623 5.179 12.971 7.585l59.589 33.698c3.743 2.234 8.172 3.782 11.3 6.886l.655 2.139-44.915 26.168c-8.356 4.794-16.667 10.442-25.714 13.807-5.934 2.205-11.848 3.037-18.152 3.13l.452-94.522z" fill="#5B5D73"/>
</svg>
